<svg xmlns="http://www.w3.org/2000/svg" version="1.1" xmlns:xlink="http://www.w3.org/1999/xlink" xmlns:svgjs="http://svgjs.dev/svgjs" width="100%" height="100%" viewBox="0 0 1000 600"><rect width="1000" height="600" x="0" y="0" fill="#f4a950"/><g><rect width="333.3333333333333" height="333.3333333333333" rx="13.333333333333334" ry="13.333333333333334" y="150.66963753469287" fill="#161b21" transform="matrix(0.9731608602114772,0,0,0.9731608602114772,0,-8.819279127842648)" x="128.44741821289062"/><path d="M256.31944157396043 392.33630918404555L256.31944157396043 242.33631372535166L279.89086943175516 242.33631372535166L279.89086943175516 305.5505975258012L309.89086852349396 242.33631372535166L333.4622963812887 242.33631372535166L305.3968210405053 297.39583586792776L333.9087249392015 392.33630918404555L309.26586854241606 392.33630918404555L289.32539295564527 325.491073112572L279.89086943175516 344.5386915835173L279.89086943175516 392.33630918404555L256.31944157396043 392.33630918404555Z " fill="#f4a950" transform="matrix(0.9731608602114772,0,0,0.9731608602114772,0,-8.819279127842648)"/><path d="M545.11408497606 392.33630918404555L545.11408497606 242.33631372535166L568.6855128338548 242.33631372535166L568.6855128338548 305.5505975258012L598.6855119255936 242.33631372535166L622.2569397833884 242.33631372535166L594.1914644426049 297.39583586792776L622.703368341301 392.33630918404555L598.0605119445156 392.33630918404555L578.1200363577448 325.491073112572L568.6855128338548 344.5386915835173L568.6855128338548 392.33630918404555L545.11408497606 392.33630918404555ZM633.8343203852597 392.33630918404555L633.8343203852597 242.33631372535166L657.4057482430544 242.33631372535166L657.4057482430544 392.33630918404555L633.8343203852597 392.33630918404555ZM691.4831281637299 392.33630918404555L668.7747955178999 242.33631372535166L692.5545567027207 242.33631372535166L707.9712229026419 358.7053578212828L708.4176514605547 358.7053578212828L723.834317660476 242.33631372535166L745.4712217673153 242.33631372535166L722.7628891214854 392.33630918404555L691.4831281637299 392.33630918404555ZM744.6081265553507 392.33630918404555L769.0426496251101 242.33631372535166L800.9771724678043 242.33631372535166L825.4116955375637 392.33630918404555L801.840267679769 392.33630918404555L797.5545535238064 362.5446434193328L797.5545535238064 362.99107197724544L770.7688400490396 362.99107197724544L766.4831258930769 392.33630918404555L744.6081265553507 392.33630918404555ZM773.5366971080988 342.6339297364228L794.7569345608862 342.6339297364228L784.2509824980054 268.4672653151797L783.8343158439535 268.4672653151797L773.5366971080988 342.6339297364228ZM836.7509809085484 392.33630918404555L836.7509809085484 242.33631372535166L860.3224087663431 242.33631372535166L860.3224087663431 370.90773840423213L899.131931400894 370.90773840423213L899.131931400894 392.33630918404555L836.7509809085484 392.33630918404555Z " fill="#161b21" transform="matrix(0.9731608602114772,0,0,0.9731608602114772,0,-8.819279127842648)"/></g></svg>